<svg width="48" height="48" viewBox="0 0 48 48" fill="none" xmlns="http://www.w3.org/2000/svg">
<path d="M7.10742 4.18896H40.8926C41.7095 4.18896 42.3892 4.46979 42.96 5.04053C43.5306 5.61123 43.8115 6.29109 43.8115 7.10791V32.8745C43.8115 33.5775 43.5972 34.1828 43.1602 34.7075L42.959 34.9272C42.3881 35.4998 41.709 35.7817 40.8926 35.7817H29.0645L28.917 36.0044L25.002 41.8823L24.999 41.8872C24.9041 42.0327 24.7965 42.1465 24.6768 42.2339L24.5527 42.312C24.3775 42.4085 24.1955 42.4556 24 42.4556C23.8506 42.4555 23.7104 42.4291 23.5762 42.3755L23.4434 42.312C23.3161 42.242 23.2018 42.1478 23.1006 42.0239L23.0039 41.8901L22.999 41.8833L19.085 36.0044L18.9365 35.7817H7.10742C6.39661 35.7817 5.78996 35.5665 5.26855 35.1294L5.05078 34.9282H5.0498C4.47958 34.3545 4.20117 33.6784 4.20117 32.8745V7.10791L4.21387 6.80713C4.26651 6.21959 4.47813 5.70797 4.85059 5.25928L5.0498 5.03955C5.61825 4.46917 6.29461 4.18902 7.10742 4.18896ZM6.5957 33.3745H20.2148L23.583 38.4575L24 39.0864L24.417 38.4575L27.7852 33.3745H41.4043V6.59521H6.5957V33.3745Z" fill="white" stroke="white"/>
</svg>
