<svg width="48" height="48" viewBox="0 0 48 48" fill="none" xmlns="http://www.w3.org/2000/svg">
<path d="M23.9998 4.18945C28.048 4.18945 31.6248 5.55875 34.7478 8.31543L35.0486 8.58691C38.2135 11.4983 39.8112 15.4056 39.8113 20.3643C39.8113 22.2832 39.4143 24.1958 38.614 26.1045L38.449 26.4854C37.642 28.2886 36.6552 30.0244 35.489 31.6924L34.9783 32.4033C33.7556 34.0589 32.4399 35.6175 31.032 37.0801L30.4236 37.7012C28.772 39.3537 27.23 40.8171 25.7986 42.0918L25.7878 42.1025C25.6111 42.2698 25.4134 42.4021 25.1931 42.501L24.9656 42.5889C24.6268 42.6987 24.2998 42.751 23.9841 42.751C23.7475 42.751 23.5081 42.7219 23.2654 42.6611L23.0222 42.5898C22.7191 42.489 22.4568 42.3288 22.2302 42.1074L22.2214 42.0996L22.2117 42.0908L21.113 41.0996C20.367 40.4152 19.5938 39.6842 18.7947 38.9053L17.5769 37.7012C16.1423 36.2659 14.7998 34.7347 13.5505 33.1064L13.0212 32.4033C11.8038 30.7548 10.7678 29.0385 9.91284 27.2549L9.55737 26.4863C8.65032 24.4509 8.20093 22.4113 8.20093 20.3643C8.20097 15.5603 9.69824 11.743 12.6658 8.8623L12.9578 8.58691C16.1472 5.64909 19.821 4.18949 23.9998 4.18945ZM23.9998 6.6084C20.374 6.6084 17.2756 7.81582 14.7341 10.2295L14.49 10.4668C11.8952 13.047 10.6072 16.3608 10.6072 20.3643C10.6072 22.8971 11.6018 25.6758 13.5222 28.6885L13.9187 29.2939C16.0991 32.5414 19.3505 36.17 23.6589 40.1777L23.9958 40.4902L24.3357 40.1816C28.4697 36.4312 31.6115 33.0071 33.7458 29.9102L34.1599 29.2959V29.2949C36.2889 26.0442 37.3923 23.0625 37.3923 20.3643C37.3923 16.486 36.1843 13.2549 33.7498 10.7109L33.5095 10.4668C30.9226 7.89521 27.7422 6.60847 23.9998 6.6084ZM23.9958 16.9053C24.7517 16.9054 25.3985 17.1332 25.9558 17.5957L26.1892 17.8086C26.7964 18.4132 27.0955 19.1326 27.0955 19.9961C27.0954 20.7522 26.8671 21.3972 26.405 21.9512L26.1931 22.1836C25.5888 22.7869 24.8688 23.0839 24.0046 23.084C23.2477 23.084 22.6015 22.8575 22.0476 22.3984L21.8162 22.1875C21.2135 21.5871 20.9167 20.8692 20.9167 20.0049C20.9168 19.2479 21.1435 18.6003 21.6033 18.043L21.8142 17.8096C22.4148 17.2033 23.1325 16.9053 23.9958 16.9053Z" fill="white" stroke="white"/>
</svg>
