<svg width="48" height="48" viewBox="0 0 48 48" fill="none" xmlns="http://www.w3.org/2000/svg">
<path d="M8.23804 6.18945H15.238C15.6622 6.18947 16.0063 6.30448 16.2927 6.52832L16.4119 6.63184C16.7382 6.93905 16.9777 7.35134 17.116 7.89355V7.89453L18.4587 13.9697C18.524 14.4225 18.5214 14.8157 18.4607 15.1553L18.4314 15.2988C18.3466 15.6553 18.1733 15.9572 17.905 16.2129L18.2498 16.5752L17.9041 16.2129L17.8982 16.2188L12.8621 21.1855L12.5828 21.4609L12.783 21.7979C13.5216 23.0391 14.3 24.2103 15.1179 25.3115L15.4705 25.7783C16.4172 27.0127 17.4689 28.1871 18.6238 29.3018V29.3027C19.6894 30.4048 20.7969 31.416 21.946 32.3359L22.4412 32.7246C23.7698 33.7476 25.1575 34.6418 26.6033 35.4072L26.9333 35.582L27.1951 35.3145L32.0046 30.3789L32.0144 30.3691C32.3071 30.0514 32.6269 29.8329 32.9753 29.7021L33.1257 29.6514C33.4987 29.5408 33.8712 29.5106 34.2478 29.5605L34.4089 29.5869L40.0828 30.8428C40.5517 30.9723 40.9282 31.1919 41.2253 31.499L41.3474 31.6367C41.6569 32.0104 41.8113 32.438 41.8113 32.9404V39.7627C41.8112 40.2871 41.6606 40.7153 41.363 41.0713L41.2263 41.2188C40.8358 41.6053 40.3629 41.7998 39.7742 41.7998C36.1809 41.7998 32.5177 40.9901 28.782 39.3594L28.0339 39.0225C24.2892 37.2827 20.7949 34.856 17.5515 31.7383L16.906 31.1055C13.6965 27.896 11.1773 24.4336 9.34253 20.7188L8.98413 19.9727C7.12374 15.9732 6.20093 12.0629 6.20093 8.23828C6.20096 7.71421 6.3504 7.28361 6.64722 6.92383L6.78394 6.77441C7.17066 6.38557 7.64387 6.18945 8.23804 6.18945ZM8.63159 9.12988C8.68434 10.3454 8.85825 11.6177 9.15112 12.9463L9.28394 13.5195C9.65901 15.0623 10.2489 16.7744 11.0496 18.6533L11.3396 19.332L11.8621 18.8115L15.9001 14.7949L16.0935 14.6025L16.0369 14.3359L14.8992 9.00391L14.8142 8.6084H8.60913L8.63159 9.12988ZM39.3923 33.1621L38.9939 33.0791L34.0232 32.0508L33.7507 31.9951L33.5593 32.1953L29.6335 36.3096L29.1521 36.8145L29.7849 37.1084C30.9734 37.6613 32.2517 38.1246 33.6189 38.499L34.2107 38.6543C35.8035 39.0534 37.3559 39.2917 38.8669 39.3682L39.3923 39.3945V33.1621Z" fill="white" stroke="white"/>
</svg>
